<svg width="140" height="19" viewBox="0 0 140 19" fill="none" xmlns="http://www.w3.org/2000/svg">
<g clip-path="url(#clip0_3408_11885)">
<path d="M80.3226 10.6572C79.3616 8.84749 78.8146 7.55422 78.0874 5.74449H77.9845C78.1411 7.6844 78.2183 8.97767 78.2183 10.9154V18.5428H74.8398V0.443359H78.6087L82.1437 7.3216C83.1047 9.18255 83.6774 10.399 84.456 12.2087C85.2368 10.399 85.8074 9.18255 86.7684 7.3216L90.3034 0.443359H94.0722V18.5449H90.6938V10.9176C90.6938 8.97767 90.771 7.6844 90.9276 5.74663H90.8246C90.0975 7.55635 89.5505 8.84963 88.5895 10.6594L84.456 18.547L80.3226 10.6594V10.6572Z" fill="black"/>
<path d="M110.522 14.6646C109.769 16.9908 107.56 18.9307 104.051 18.9307C99.7371 18.9307 97.0322 15.8277 97.0322 11.8198C97.0322 7.81198 99.8122 4.70898 103.971 4.70898C107.401 4.70898 109.482 6.51871 110.34 9.20769C110.651 10.1894 110.782 11.329 110.782 12.4665V12.9829H100.385C100.488 14.6646 101.711 16.4743 104.049 16.4743C105.816 16.4743 106.726 15.4927 107.037 14.6646H110.52H110.522ZM100.387 10.5266H107.431C107.354 8.71685 106.131 7.16535 103.974 7.16535C101.816 7.16535 100.595 8.71685 100.387 10.5266Z" fill="black"/>
<path d="M124.248 15.9582V18.5447H112.292V15.9582L119.855 7.6842H112.552V5.09766H123.987V7.6842L116.423 15.9582H124.246H124.248Z" fill="black"/>
<path d="M132.929 18.9307C128.641 18.9307 125.859 15.8277 125.859 11.8198C125.859 7.81198 128.641 4.70898 132.929 4.70898C137.217 4.70898 139.999 7.81198 139.999 11.8198C139.999 15.8277 137.219 18.9307 132.929 18.9307ZM132.929 16.3463C135.658 16.3463 136.775 14.0201 136.775 11.822C136.775 9.62385 135.658 7.29766 132.929 7.29766C130.201 7.29766 129.083 9.62598 129.083 11.822C129.083 14.018 130.201 16.3463 132.929 16.3463Z" fill="black"/>
<path d="M16.2894 16.2363L23.0463 9.51387V9.48399L29.7709 16.2064C31.7143 18.14 34.091 19 36.4356 19C41.3413 19 46.0603 15.1949 46.0603 9.48399L52.785 16.2064C54.7284 18.14 57.1051 19 59.4496 19C64.3553 19 69.0744 15.1949 69.0744 9.48399H63.3043L56.5796 2.79355C54.6362 0.860047 52.2295 0 49.8849 0C44.9792 0 40.2902 3.77524 40.2902 9.48399L33.5655 2.79355C31.6221 0.860047 29.2154 0 26.8709 0C21.9652 0 17.2761 3.77524 17.2761 9.48399L0 9.51387C0 15.2546 4.78128 18.968 9.68698 18.968C12.0315 18.968 14.4082 18.1079 16.2894 16.2363Z" fill="#FF004D"/>
</g>
<defs>
<clipPath id="clip0_3408_11885">
<rect width="140" height="19" fill="white"/>
</clipPath>
</defs>
</svg>
